<svg xmlns="http://www.w3.org/2000/svg" viewBox="0 0 24 24"><g><path d="M2.64,10.59l9-7.48a.48.48,0,0,1,.62,0l9,7.48a1.45,1.45,0,0,0,2.06-.22,1.52,1.52,0,0,0-.21-2.11l-9-7.49a3.41,3.41,0,0,0-4.32,0l-9,7.49a1.52,1.52,0,0,0-.21,2.11A1.45,1.45,0,0,0,2.64,10.59Z" fill="#000000"></path><path d="M22.28,22V15a2.22,2.22,0,0,0-.73-1.59l-8.3-7a1.94,1.94,0,0,0-2.5,0l-8.3,7A2.22,2.22,0,0,0,1.72,15v7a2,2,0,0,0,2,2H9.06a1,1,0,0,0,1-1V17.5a1,1,0,0,1,1-1h2a1,1,0,0,1,1,1V23a1,1,0,0,0,1,1h5.38A2,2,0,0,0,22.28,22Z" fill="#000000"></path></g></svg>