<svg xmlns="http://www.w3.org/2000/svg" viewBox="0 0 24 24"><g><path d="M21.71 5.71 16.29.29a1 1 0 0 0-.7-.29H4a2 2 0 0 0-2 2v20a2 2 0 0 0 2 2h16a2 2 0 0 0 2-2V6.41a1 1 0 0 0-.29-.7ZM20 21.5a.5.5 0 0 1-.5.5h-15a.5.5 0 0 1-.5-.5v-19a.5.5 0 0 1 .5-.5H15a.49.49 0 0 1 .36.15l4.53 4.53A.49.49 0 0 1 20 7Z" fill="purple"></path><path d="M6.8 8a2 2 0 1 0 4 0 2 2 0 1 0-4 0" fill="purple"></path><path d="M14.22 10.68a.49.49 0 0 0-.84 0L11 14.56a.27.27 0 0 1-.21.12.27.27 0 0 1-.22-.12l-.86-1.38a.5.5 0 0 0-.85 0L6 17.62a.25.25 0 0 0 0 .25.26.26 0 0 0 .22.13h12.1a.26.26 0 0 0 .22-.13.25.25 0 0 0 0-.25Z" fill="purple"></path></g></svg>